HIERARCHY
ROOT Hips
{
     OFFSET 1.88212 96.90440 -13.34250
     CHANNELS 6 Xposition Yposition Zposition Zrotation Xrotation Yrotation
     JOINT Spine
     {
          OFFSET 0.00000 11.89050 0.00000
          CHANNELS 3 Zrotation Xrotation Yrotation
          JOINT Spine1
          {
               OFFSET -0.00000 25.65740 0.12766
               CHANNELS 3 Zrotation Xrotation Yrotation
               JOINT HEad
               {
                    OFFSET 0.00000 8.73416 0.01134
                    CHANNELS 3 Zrotation Xrotation Yrotation
                    End Site
                    {
                         OFFSET -0.29000 12.77420 2.51395
                    }
               }
               JOINT LeftShoulder1
               {
                    OFFSET 8.99000 -0.36225 -0.22000
                    CHANNELS 3 Zrotation Xrotation Yrotation
                    JOINT LeftArm
                    {
                         OFFSET 10.28270 -0.00338 0.32212
                         CHANNELS 3 Zrotation Xrotation Yrotation
                         JOINT LeftForeArm
                         {
                              OFFSET 32.76690 0.09914 -1.42434
                              CHANNELS 3 Zrotation Xrotation Yrotation
                              JOINT LeftHand
                              {
                                   OFFSET 27.56430 0.08536 1.02216
                                   CHANNELS 3 Zrotation Xrotation Yrotation
                                   End Site
                                   {
                                        OFFSET 16.74430 -0.60000 1.50291
                                   }
                              }
                         }
                    }
               }
               JOINT RightShoulder
               {
                    OFFSET -8.99000 -0.36225 -0.22000
                    CHANNELS 3 Zrotation Xrotation Yrotation
                    JOINT RightArm
                    {
                         OFFSET -10.28270 -0.00338 0.32212
                         CHANNELS 3 Zrotation Xrotation Yrotation
                         JOINT RightForeArm
                         {
                              OFFSET -32.89710 0.09914 -1.42434
                              CHANNELS 3 Zrotation Xrotation Yrotation
                              JOINT RightHand
                              {
                                   OFFSET -27.49210 0.08536 1.02216
                                   CHANNELS 3 Zrotation Xrotation Yrotation
                                   End Site
                                   {
                                        OFFSET -16.63120 -0.60000 1.50291
                                   }
                              }
                         }
                    }
               }
          }
     }
     JOINT LeftUpLeg
     {
          OFFSET 8.94580 -8.66707 0.10165
          CHANNELS 3 Zrotation Xrotation Yrotation
          JOINT LeftLeg
          {
               OFFSET 0.00000 -44.42270 1.37270
               CHANNELS 3 Zrotation Xrotation Yrotation
               JOINT LeftFoot
               {
                    OFFSET -0.25355 -42.09240 -1.46059
                    CHANNELS 3 Zrotation Xrotation Yrotation
                    JOINT LeftToes
                    {
                         OFFSET -0.04000 -4.41509 8.49910
                         CHANNELS 3 Zrotation Xrotation Yrotation
                         End Site
                         {
                              OFFSET 0.08000 -0.04745 9.77979
                         }
                    }
               }
          }
     }
     JOINT RightUpLeg
     {
          OFFSET -8.94580 -8.66707 0.10165
          CHANNELS 3 Zrotation Xrotation Yrotation
          JOINT RightLeg
          {
               OFFSET 0.00000 -44.42270 1.37270
               CHANNELS 3 Zrotation Xrotation Yrotation
               JOINT RightFoot
               {
                    OFFSET 0.25355 -42.09240 -1.46059
                    CHANNELS 3 Zrotation Xrotation Yrotation
                    JOINT RightToes
                    {
                         OFFSET 0.04000 -4.41509 8.49910
                         CHANNELS 3 Zrotation Xrotation Yrotation
                         End Site
                         {
                              OFFSET -0.08000 -0.13745 9.77979
                         }
                    }
               }
          }
     }
}
MOTION
Frames: 17
Frame Time: 0.01667
-866.46558 92.48384 -302.56165 -10.99574 -13.89377 -37.66287 23.09430 4.25745 -13.07158 -0.03784 0.03537 0.03057 -19.95366 44.43660 23.58599 -2.90331 9.16969 -2.08465 -65.63084 -74.46152 -89.23883 -28.43769 43.33805 -94.65881 7.60308 9.12761 3.26146 27.28845 9.93268 6.42533 32.40605 -31.63026 52.55148 15.76076 38.14858 106.69051 -5.09276 4.07228 0.71874 11.89793 -18.85648 14.92128 16.25797 49.48602 -31.73870 -31.26604 -0.12075 -0.08881 13.13919 -19.35413 -6.97386 -0.91535 -9.65556 -6.99700 -4.35592 29.76484 16.70352 16.30220 -0.43066 0.12125 -6.18589 -11.24116 -22.81646 
-865.29974 92.06750 -303.68402 -11.16112 -12.22994 -41.71628 25.36599 3.28905 -12.52254 -0.03030 0.03290 0.02966 -23.56565 46.07802 27.19730 -5.55211 10.32104 0.78908 -61.00529 -76.44172 -87.72374 -29.87633 42.61406 -92.84853 11.05312 8.38904 6.21754 24.00255 12.28418 7.97143 32.96547 -30.76073 53.95189 16.35646 38.08971 105.11260 -4.93846 2.49850 2.27595 10.68515 -18.94017 16.67446 20.08934 47.13964 -34.00061 -30.10151 0.03174 0.00830 9.49829 -20.76632 3.06623 -1.01905 -13.54960 -10.01822 -6.19847 32.82259 14.31027 10.23632 -0.59066 0.04670 -3.44823 -9.36302 -16.98299 
-864.19415 91.62374 -304.90839 -11.11303 -10.71590 -45.26460 26.72018 3.00525 -11.93020 -0.02245 0.03012 0.02901 -26.25578 46.96933 30.37887 -7.17404 10.93350 3.29055 -57.42163 -78.34007 -85.07296 -30.57109 42.60739 -91.94444 9.71976 7.61366 4.75152 21.51617 13.92712 9.59546 33.32727 -29.75096 55.11613 17.03158 37.77103 103.65287 -5.09512 4.32801 1.43077 9.26748 -18.52833 16.96777 22.64385 44.04765 -33.89693 -29.08754 0.03105 0.00631 9.36446 -21.36491 2.05900 -1.40282 -16.87327 -13.04524 -8.01670 36.95800 10.81467 5.69089 -0.50840 -0.07292 9.37098 -0.25759 -20.10600 
-863.26337 91.14151 -306.27911 -10.87742 -9.42615 -48.28226 27.22872 3.23206 -11.24573 -0.01372 0.02594 0.02746 -27.99360 47.31284 32.94566 -7.46360 11.15889 5.07340 -54.07253 -82.19267 -77.43929 -30.18026 44.77137 -95.31879 11.45003 7.38429 5.54951 19.82675 14.95617 11.11459 33.47887 -28.71585 56.01808 17.69634 37.29886 102.50168 -5.07679 3.57306 2.55585 7.92295 -17.79466 15.84692 23.99343 40.79384 -31.75783 -28.07898 0.02429 -0.00081 6.26537 -22.04183 5.42384 -2.21666 -19.67912 -16.08212 -10.54348 42.41471 10.03469 5.08412 -0.09702 0.04992 6.01674 -5.25476 -6.25395 
-862.54938 90.63495 -307.81168 -10.51344 -8.42299 -50.74596 26.57514 5.06690 -10.19081 -0.05688 0.11367 0.04153 -28.90250 45.45967 34.82980 -6.09991 9.98478 6.08759 -44.64934 -86.28901 -60.95026 -32.32285 45.85100 -94.63664 8.26863 8.26037 -0.46127 19.80429 14.33702 12.40514 33.23724 -27.64856 56.66976 18.17356 36.79573 101.83946 -5.28109 4.77016 2.22934 6.92313 -17.19783 14.60109 25.26026 37.67410 -29.51514 -26.90935 0.02097 -0.00864 3.62885 -21.93476 5.91866 -4.27498 -21.66433 -18.53256 -13.14009 48.42840 11.48628 2.98108 -0.15282 -0.02574 8.25688 6.31110 -16.35066 
-862.05707 90.06587 -309.52463 -10.08411 -7.73563 -52.65606 24.92934 8.00197 -8.39291 -0.03987 0.09800 0.06149 -28.99672 42.15187 35.53886 -3.97712 7.97817 6.51329 11.74725 -90.00000 0.00000 -34.05967 46.53178 -94.03178 7.82544 8.91809 -2.28822 21.20785 12.63662 13.02449 32.64237 -26.59234 56.98518 18.39683 36.41226 101.74693 -5.46250 4.18397 2.94817 6.32290 -16.74879 13.31645 25.26241 35.47824 -24.68955 -24.27501 -0.00834 -0.06051 -0.96347 -21.04057 5.22787 -7.15445 -22.77900 -20.27108 -17.10209 54.42992 15.65232 2.79238 -0.06183 0.03078 8.72069 -3.23588 -6.38310 
-861.76636 89.36440 -311.45239 -9.62631 -7.36259 -54.04838 22.45951 11.55177 -5.59625 -0.02066 0.07599 0.07392 -28.60712 37.97224 35.08369 -0.97717 5.36256 5.99250 4.65005 -90.00000 0.00000 -32.80764 48.13478 -98.55832 6.21138 8.95933 -3.81805 23.61317 10.04890 12.93516 31.84469 -25.57324 56.91177 18.27263 36.18252 102.23230 -5.67244 5.12106 2.68389 6.22694 -16.50459 12.08135 24.01694 34.19398 -18.27291 -20.15933 -0.08885 -0.10375 -5.89273 -18.98618 2.85745 -10.50927 -23.06547 -21.18456 -23.39648 59.61317 23.13256 3.51869 -0.04244 0.06588 6.08279 8.54966 -18.27878 
-861.61865 88.55680 -313.62299 -9.13742 -7.27740 -54.96334 19.63936 14.38918 -2.73007 0.02519 -0.01379 0.00224 -29.58052 33.79381 35.32120 1.92397 3.27479 5.61798 47.26114 -85.29505 51.22418 -35.06189 48.71914 -99.16492 7.33656 2.23411 8.91392 25.62227 7.90899 12.68160 30.11336 -20.53170 55.18663 14.22379 32.95653 105.28891 -5.85533 4.76931 2.95016 6.70270 -16.53614 10.94126 21.49516 33.57218 -10.88151 -14.67135 -0.19281 -0.13074 -12.08704 -16.33676 -0.42584 -14.11670 -22.55598 -21.22315 -34.34758 63.89709 36.58489 -6.85103 0.08642 -0.57627 20.59824 -4.91315 -10.38032 
-861.59863 87.65469 -316.05884 -8.59810 -7.40264 -55.45669 16.63490 16.50110 0.20366 0.02936 -0.01896 -0.00340 -30.10392 30.41103 34.86433 4.36046 1.51695 5.23439 40.70011 -83.84936 49.91820 -36.82320 49.05078 -99.77839 3.54988 10.35129 -5.58238 27.62099 6.02756 12.17203 29.06154 -17.35504 54.03588 12.21349 30.84218 107.40696 -5.98911 5.38967 2.72146 8.64487 -16.99542 10.57866 18.85431 32.94022 -5.65212 -9.57993 -0.16804 -0.09986 -18.22370 -14.51577 -3.11052 -17.73644 -21.19739 -20.34659 -46.33984 64.65137 51.59891 5.08635 -0.31551 0.55531 -0.34262 2.92122 -23.32119 
-861.71710 86.67318 -318.76550 -8.00136 -7.63235 -55.59069 13.91503 18.01906 2.75400 0.02751 -0.01803 -0.00270 -30.81755 27.60266 34.30771 6.13562 0.04064 5.05293 33.74302 -82.84283 46.25500 -38.09909 49.10237 -100.42702 7.66866 1.46576 20.13236 29.43119 4.54873 11.96086 28.35625 -15.44380 53.16347 16.31559 31.86598 108.38726 -6.59847 10.34420 1.22291 11.63970 -17.81985 11.02445 15.65974 32.55630 -2.00872 -4.35947 -0.15157 -0.08808 -24.29518 -12.63860 -5.06717 -21.06473 -18.93768 -18.53612 -53.34874 62.47235 62.67442 7.95318 -0.07855 0.16061 4.02714 -5.16871 -23.64692 
-861.93579 85.61025 -321.69629 -7.33250 -7.85858 -55.44035 11.52798 19.02687 4.96781 0.02454 -0.01566 -0.00206 -31.62771 25.29983 33.70414 7.37098 -1.13519 4.94301 27.68470 -81.92953 42.46828 -38.75451 49.21317 -101.65305 3.30622 2.08158 2.76709 30.89363 3.38556 11.90547 28.19548 -14.29730 52.66398 18.58013 32.56013 108.95026 -6.79638 13.45919 0.24494 14.37550 -18.86253 11.42272 12.56750 32.27246 1.00180 1.02844 -0.13671 -0.07513 -29.98864 -10.83959 -6.45230 -23.83491 -15.78699 -15.82275 -53.18852 58.86925 67.58492 15.81384 -0.28877 0.24788 2.62354 -8.86657 -27.82555 
-862.20984 84.45127 -324.77551 -6.57712 -8.00044 -55.07473 9.47105 19.59609 6.87756 0.02027 -0.01276 -0.00287 -32.41726 23.40228 33.09629 8.20927 -2.05484 4.59147 23.66365 -81.01604 39.96948 -38.98323 49.03464 -102.46133 6.01495 4.82465 13.94736 31.95977 2.44046 11.85984 28.62039 -13.57920 52.63879 19.71833 33.05221 109.15519 -6.78929 14.78054 0.07305 16.88003 -20.15809 11.82602 9.66308 32.05815 3.42933 6.49173 -0.11851 -0.06317 -35.30809 -9.26986 -7.37782 -25.92049 -11.84077 -12.31351 -44.86095 53.97896 66.22385 16.51724 -0.14848 0.08233 4.78836 -29.91973 -29.90396 
-862.48047 83.24770 -327.89227 -5.75725 -7.97682 -54.55442 7.78370 19.80076 8.50595 0.01714 -0.00976 -0.00334 -33.11143 21.80560 32.49509 8.68871 -2.69742 4.12075 21.54002 -80.21671 38.97923 -38.88372 48.91426 -103.45454 3.21634 5.02126 3.54289 32.45820 1.67122 11.74627 29.75779 -13.13965 53.11856 20.25508 33.46124 109.02902 -6.72589 15.30433 -0.12220 19.19992 -21.69803 12.24719 7.03544 31.85462 5.32058 11.94418 -0.09829 -0.05577 -40.31847 -7.56307 -8.02774 -27.29844 -7.30356 -8.15874 -33.15308 48.79221 59.22508 21.21328 -0.35260 -0.01249 -5.33179 -37.90493 -33.19090 
-862.71716 82.06317 -330.95825 -4.90571 -7.80243 -53.92315 6.43742 19.74846 9.85587 0.01379 -0.00680 -0.00419 -33.66608 20.40516 31.91854 8.85686 -3.05111 3.50381 21.24536 -79.71211 39.54797 -38.75727 48.77486 -103.99403 5.45778 6.32855 9.90682 32.51081 1.12008 11.51348 31.39303 -12.90173 54.08030 20.48247 33.85309 108.62727 -6.57360 15.29226 -0.14387 21.31711 -23.38832 12.67760 4.75539 31.58854 6.69169 17.30249 -0.07792 -0.05318 -45.14936 -6.28763 -8.58643 -28.02545 -2.44415 -3.48311 -21.76947 42.62869 49.29352 19.46806 -0.06633 0.01988 -8.43064 -46.45023 -30.62870 
-862.92456 80.93619 -333.91669 -4.07019 -7.50417 -53.21139 5.41805 19.54092 10.92176 0.01170 -0.00422 -0.00547 -34.08506 19.11123 31.38973 8.84086 -3.09524 2.82155 22.35718 -79.53548 41.54227 -38.64959 48.79299 -104.50817 3.94218 6.30717 3.31392 32.07367 0.75674 11.03716 33.52358 -12.66944 55.52459 20.55117 34.28469 108.02374 -6.43366 14.93793 -0.27217 23.22678 -25.12044 13.10064 2.87815 31.21915 7.50530 22.48044 -0.05764 -0.05361 -49.30519 -4.82572 -8.84941 -28.17000 2.51026 1.62177 -12.59689 35.35298 38.66715 19.22155 -0.09394 -0.01244 -9.07051 -39.24036 -35.35915 
-863.14795 79.86644 -336.74670 -3.30056 -7.12137 -52.44602 4.69531 19.25961 11.70256 0.00976 -0.00228 -0.00740 -34.39555 17.89798 30.96161 8.66459 -2.88577 2.04455 24.69328 -79.65311 44.81394 -38.66032 48.90949 -104.72469 5.45749 6.69648 6.78977 31.41440 0.60444 10.33199 35.80166 -12.35742 57.29599 20.52517 34.73998 107.29675 -6.35341 14.61900 -0.43427 24.93326 -26.79199 13.49822 1.44901 30.73498 7.71568 27.38589 -0.03846 -0.05584 -53.09765 -3.72645 -9.08663 -27.69190 7.30100 7.04082 -6.37256 27.38311 28.05630 16.72196 -0.07690 0.06510 -16.42670 -48.26125 -26.66425 
-863.42346 78.98178 -339.37390 -2.70596 -6.67295 -51.61125 4.31835 18.99860 12.15592 0.00873 -0.00069 -0.00914 -34.63324 16.77669 30.68635 8.33699 -2.43159 1.26319 28.00944 -80.02071 49.20639 -38.81504 49.27529 -104.93626 4.74962 6.49657 2.45218 30.74466 0.69171 9.40862 37.95132 -11.97617 59.24424 20.45051 35.21200 106.53258 -6.32231 14.27414 -0.68689 26.35140 -28.30895 13.72608 1.25043 30.25289 4.94336 31.25675 0.04949 -0.07026 -56.03162 -3.29297 -7.36167 -27.57775 10.85886 11.86708 -2.37187 22.14923 18.07235 15.34883 -0.12166 0.02137 -10.24956 -40.38070 -26.43795 
